<svg width="16" height="14" viewBox="0 0 16 14" fill="none" xmlns="http://www.w3.org/2000/svg">
<path d="M13.7895 0.475037C15.0105 0.475037 16 1.49337 16 2.75004V11.2C16 12.4567 15.0105 13.475 13.7895 13.475H2.21053C1.62426 13.475 1.062 13.2353 0.647448 12.8087C0.232894 12.3821 0 11.8034 0 11.2V2.75004C0 1.49337 0.989474 0.475037 2.21053 0.475037H13.7895ZM14.9474 4.52714L8.25347 8.3162C8.1846 8.35518 8.10812 8.37778 8.02965 8.38236C7.95118 8.38693 7.87271 8.37336 7.8 8.34264L7.74653 8.31664L1.05263 4.5267V11.2C1.05263 11.5161 1.17462 11.8192 1.39177 12.0427C1.60892 12.2662 1.90343 12.3917 2.21053 12.3917H13.7895C14.0966 12.3917 14.3911 12.2662 14.6082 12.0427C14.8254 11.8192 14.9474 11.5161 14.9474 11.2V4.52714ZM13.7895 1.55837H2.21053C1.90343 1.55837 1.60892 1.68392 1.39177 1.9074C1.17462 2.13088 1.05263 2.43399 1.05263 2.75004V3.29127L8 7.22334L14.9474 3.29084V2.75004C14.9474 2.43399 14.8254 2.13088 14.6082 1.9074C14.3911 1.68392 14.0966 1.55837 13.7895 1.55837Z" fill="#475467"/>
</svg>
